<svg version="1" xmlns="http://www.w3.org/2000/svg" width="960" height="960" viewBox="0 0 720.000000 720.000000"><path d="M222 155.8c-24.9 8.3-56.3 41.8-87.6 93.3-14.5 24.1-23 46.1-18.6 48.8.6.3 11.7 4 24.6 8.1 13 4.1 23.6 7.9 23.6 8.3 0 .4-23.8 28.1-52.8 61.5-29.1 33.4-53.7 62-54.7 63.5l-1.8 2.8 4.8 4.5c2.7 2.5 5.6 4.4 6.6 4.2 1-.2 28.4-30.7 60.9-67.8 32.5-37.1 60-68.4 61-69.4 1.7-1.7 1.6-1.1-.5 6.4-25 85.8-4.7 145.1 61.6 180 25 13.1 67.3 25.6 90.4 26.7 19.1.9 55.4-3.5 96.9-11.8 29.9-6 51.7-11.9 76.6-20.6 35.3-12.5 52.5-16.2 70.8-15 16.5.9 25.5 6.8 35.7 23.1 5.1 8.3 6.7 9 11.4 5.7 11.3-8.1 20.1-50.9 21.8-106.3.6-18 .8-19.8 2.5-20.3 1-.4 2-1.6 2.3-2.8.2-1.2 1.1-16.7 2-34.5l1.6-32.3-3.2-4c-1.7-2.1-3.9-3.9-4.9-3.9-1.1 0-15.3 6.6-31.7 14.6s-33.9 16.6-39 18.9l-9.1 4.3-14.9-9.2c-8.1-5-32.1-20.8-53.2-34.9-43.6-29.3-60.4-39.6-81.1-49.6-37.5-18.1-73.5-26.5-116.7-27.3-11.1-.2-14.9-.6-14-1.4.7-.6 18-13.4 38.5-28.3 20.5-15 37.2-27.9 37.2-28.8 0-2.3-3.2-7.1-5-7.6-2.4-.6-17.1 3.8-25.6 7.7-11.6 5.4-17 9.5-31.9 24.6-7.7 7.7-16.5 15.8-19.6 18l-5.5 3.9-7.9-12.7c-15.8-25.4-17.6-28-22.8-32.9-2.9-2.8-6.8-5.8-8.7-6.8-5-2.6-13.5-2.9-20-.7zM326.5 244c29.1 2.1 56.6 9 90 22.7 16 6.5 41.6 22 95 57.6 37.9 25.3 40.1 27.1 45.8 38.4 1.5 2.8 3.5 5.3 4.4 5.5 2.6.6 6.8-1 25.3-9.7 24.1-11.2 30.6-13.7 38.1-14.2 14-1.1 14.5 3.9 5.8 55.7-2.1 12.9-5.5 33.6-7.5 46-2 12.3-3.7 22.7-3.9 23.1-.3.3-2.7-1.6-5.4-4.2-9.2-8.9-19.9-12.6-33.5-11.6-9.9.7-25.3 5.1-70 19.7-51.9 16.9-65.2 20.1-111.6 26.4-39.7 5.4-44.4 5.9-62.5 5.9-26.7-.1-44.8-4.1-67-14.8-14.3-7-21.6-11.9-31.7-21.3-26.1-24.5-41.8-59.9-41.9-94.3-.1-25.3 8.8-58.4 21-78.8 20.1-33.3 48.3-49.8 89.6-52.4 2.8-.2 5.2-.4 5.5-.5.3-.1 6.8.3 14.5.8z"/><path d="M285.5 350.4c-2.3.7-4.1 1.9-4.3 2.9-.2.9 2.3 8.5 5.5 16.8 6.4 16.7 6.6 16.9 15.5 16.9 4.9 0 5.2-.2 11-6.3 9.1-9.6 9.1-9.5 7.3-15.3-2.1-7.1-6.5-11.9-13.1-14.3-6.2-2.4-15.5-2.7-21.9-.7z"/></svg>